<?xml version="1.0" encoding="UTF-8"?>
<svg xmlns="http://www.w3.org/2000/svg" width="48" height="48" viewBox="0 0 48 48" fill="none">
  <path d="M24 4C12.955 4 4 12.955 4 24C4 35.045 12.955 44 24 44C35.045 44 44 35.045 44 24C44 12.955 35.045 4 24 4ZM24 40C15.178 40 8 32.822 8 24C8 15.178 15.178 8 24 8C32.822 8 40 15.178 40 24C40 32.822 32.822 40 24 40Z" fill="#5D8BF4"/>
  <path d="M33.3 16.6H14.7C14.2 16.6 13.8 16.8 13.5 17.1C13.2 17.4 13 17.8 13 18.3V29.7C13 30.2 13.2 30.6 13.5 30.9C13.8 31.2 14.2 31.4 14.7 31.4H33.3C33.8 31.4 34.2 31.2 34.5 30.9C34.8 30.6 35 30.2 35 29.7V18.3C35 17.8 34.8 17.4 34.5 17.1C34.2 16.8 33.8 16.6 33.3 16.6ZM33.3 29.7H14.7V18.3H33.3V29.7Z" fill="#5D8BF4"/>
  <path d="M24 27.9C25.6569 27.9 27 26.5569 27 24.9C27 23.2431 25.6569 21.9 24 21.9C22.3431 21.9 21 23.2431 21 24.9C21 26.5569 22.3431 27.9 24 27.9Z" fill="#5D8BF4"/>
  <path d="M18.3 24.9C18.3 25.1 18.4 25.3 18.5 25.4C18.6 25.5 18.8 25.6 19 25.6C19.2 25.6 19.4 25.5 19.5 25.4C19.6 25.3 19.7 25.1 19.7 24.9C19.7 24.7 19.6 24.5 19.5 24.4C19.4 24.3 19.2 24.2 19 24.2C18.8 24.2 18.6 24.3 18.5 24.4C18.4 24.5 18.3 24.7 18.3 24.9Z" fill="#5D8BF4"/>
  <path d="M29 24.2C28.8 24.2 28.6 24.3 28.5 24.4C28.4 24.5 28.3 24.7 28.3 24.9C28.3 25.1 28.4 25.3 28.5 25.4C28.6 25.5 28.8 25.6 29 25.6C29.2 25.6 29.4 25.5 29.5 25.4C29.6 25.3 29.7 25.1 29.7 24.9C29.7 24.7 29.6 24.5 29.5 24.4C29.4 24.3 29.2 24.2 29 24.2Z" fill="#5D8BF4"/>
</svg>
