<?xml version="1.0" encoding="UTF-8"?>
<svg xmlns="http://www.w3.org/2000/svg" width="48" height="48" viewBox="0 0 48 48" fill="none">
  <path d="M24 4C12.955 4 4 12.955 4 24C4 35.045 12.955 44 24 44C35.045 44 44 35.045 44 24C44 12.955 35.045 4 24 4ZM24 40C15.178 40 8 32.822 8 24C8 15.178 15.178 8 24 8C32.822 8 40 15.178 40 24C40 32.822 32.822 40 24 40Z" fill="#187498"/>
  <path d="M26.6 34H21.4V28.8H26.6V34ZM26.6 25.7H21.4C21.4 19.5 27.8 19.9 27.8 16.7C27.8 14.9 26.2 13.4 24 13.4C21.8 13.4 20.2 14.9 20.2 16.7H15C15 12 19.1 8.6 24 8.6C28.9 8.6 33 12 33 16.7C33 21.2 26.6 21.8 26.6 25.7Z" fill="#187498"/>
</svg>
