<?xml version="1.0" encoding="UTF-8"?>
<svg xmlns="http://www.w3.org/2000/svg" width="48" height="48" viewBox="0 0 48 48" fill="none">
  <path d="M24 4C12.955 4 4 12.955 4 24C4 35.045 12.955 44 24 44C35.045 44 44 35.045 44 24C44 12.955 35.045 4 24 4ZM24 40C15.178 40 8 32.822 8 24C8 15.178 15.178 8 24 8C32.822 8 40 15.178 40 24C40 32.822 32.822 40 24 40Z" fill="#36AE7C"/>
  <path d="M31.8 19.4L27.1 14.7C26.9 14.5 26.7 14.4 26.4 14.3C26.1 14.2 25.9 14.2 25.6 14.2H16.4C15.9 14.2 15.5 14.3 15.2 14.7C14.9 15 14.7 15.4 14.7 15.9V32.1C14.7 32.6 14.9 33 15.2 33.3C15.5 33.6 15.9 33.8 16.4 33.8H31.6C32.1 33.8 32.5 33.6 32.8 33.3C33.1 33 33.3 32.6 33.3 32.1V20.9C33.3 20.6 33.3 20.3 33.2 20.1C33.1 19.8 33 19.6 31.8 19.4ZM26.4 17L30.5 21.1H26.4V17ZM16.4 32.1V15.9H24.7V21.9C24.7 22.1 24.8 22.3 24.9 22.4C25 22.5 25.2 22.6 25.4 22.6H31.4V32.1H16.4V32.1Z" fill="#36AE7C"/>
  <path d="M28.4 27.5H19.6C19.3 27.5 19.1 27.4 19 27.2C18.8 27 18.7 26.8 18.7 26.6C18.7 26.4 18.8 26.1 19 26C19.2 25.8 19.4 25.7 19.6 25.7H28.4C28.7 25.7 28.9 25.8 29 26C29.2 26.2 29.3 26.4 29.3 26.6C29.3 26.8 29.2 27 29 27.2C28.8 27.4 28.6 27.5 28.4 27.5Z" fill="#36AE7C"/>
  <path d="M24 30.9H19.6C19.3 30.9 19.1 30.8 19 30.6C18.8 30.4 18.7 30.2 18.7 30C18.7 29.8 18.8 29.5 19 29.4C19.2 29.2 19.4 29.1 19.6 29.1H24C24.3 29.1 24.5 29.2 24.6 29.4C24.8 29.6 24.9 29.8 24.9 30C24.9 30.2 24.8 30.4 24.6 30.6C24.4 30.8 24.2 30.9 24 30.9Z" fill="#36AE7C"/>
</svg>
