<?xml version="1.0" encoding="UTF-8"?>
<svg xmlns="http://www.w3.org/2000/svg" width="48" height="48" viewBox="0 0 48 48" fill="none">
  <path d="M24 4C12.955 4 4 12.955 4 24C4 35.045 12.955 44 24 44C35.045 44 44 35.045 44 24C44 12.955 35.045 4 24 4ZM24 40C15.178 40 8 32.822 8 24C8 15.178 15.178 8 24 8C32.822 8 40 15.178 40 24C40 32.822 32.822 40 24 40Z" fill="#25D366"/>
  <path d="M31 21C31 18.794 30.1571 16.6772 28.6569 15.1716C27.1566 13.666 25.0435 12.821 22.837 12.819C20.6304 12.8169 18.5158 13.6583 17.0127 15.1613C15.5097 16.6644 14.6683 18.779 14.67 20.9855V22.0645H18.504V21.0215C18.5041 19.7345 18.9965 18.5009 19.87 17.5788C20.7435 16.6567 21.939 16.1082 23.226 16.0502C24.5131 15.9922 25.7622 16.4295 26.7182 17.2699C27.6741 18.1103 28.2586 19.2845 28.349 20.5685C28.4393 21.8525 28.028 23.1223 27.1988 24.1117C26.3695 25.1011 25.1998 25.7289 23.919 25.8645C23.5995 25.8965 23.2948 26.0159 23.04 26.208C22.7851 26.4001 22.5907 26.6562 22.48 26.9505C22.3693 27.2448 22.3464 27.5639 22.414 27.8708C22.4816 28.1777 22.6373 28.4598 22.863 28.6855C23.0887 28.9112 23.3708 29.0669 23.6777 29.1345C23.9846 29.2021 24.3037 29.1792 24.598 29.0685C24.8923 28.9578 25.1484 28.7634 25.3405 28.5085C25.5326 28.2537 25.652 27.949 25.684 27.6295C26.0787 27.5504 26.457 27.413 26.809 27.222C26.9334 27.7134 26.9987 28.22 27.004 28.7295C27.0036 28.9091 26.9887 29.0883 26.959 29.265C26.5825 29.5212 26.2366 29.8201 25.928 30.1565C25.347 30.7372 24.6832 31.2252 23.963 31.6005C23.3588 31.9215 22.673 32.0618 21.988 32.0073C21.3029 31.9528 20.6499 31.7056 20.104 31.2995C19.5151 30.8576 19.0569 30.2682 18.777 29.5871C18.4971 28.9059 18.4052 28.1585 18.511 27.4295C18.6262 26.679 18.9316 25.9731 19.397 25.3805C19.8625 24.7878 20.4725 24.3286 21.167 24.0505C22.115 23.6718 22.9071 22.9858 23.423 22.1051C23.9389 21.2244 24.1489 20.1987 24.02 19.1885C23.8911 18.1783 23.4307 17.238 22.7142 16.5257C21.9978 15.8133 21.0551 15.3579 20.044 15.235C19.0328 15.1121 18.0075 15.3283 17.1293 15.8498C16.2511 16.3713 15.569 17.1677 15.195 18.1185H12.335C12.743 16.515 13.6626 15.0934 14.9442 14.0604C16.2259 13.0274 17.7975 12.4386 19.426 12.3845C21.0546 12.3303 22.6627 12.8133 23.9998 13.7614C25.3369 14.7095 26.3338 16.0712 26.849 17.6365C27.3642 19.2018 27.3658 20.8932 26.8535 22.4595C26.3413 24.0258 25.347 25.3892 24.012 26.3395C23.8671 26.1385 23.6655 25.9877 23.434 25.9065C23.2991 25.8641 23.1596 25.8375 23.0189 25.8272C22.8783 25.8169 22.7372 25.8229 22.598 25.8452C23.168 25.7043 23.7028 25.4516 24.1698 25.1026C24.6368 24.7535 25.0262 24.3161 25.317 23.8155C25.7587 23.0695 25.9973 22.2192 26.0089 21.3497C26.0204 20.4803 25.8046 19.624 25.382 18.8665C24.9595 18.109 24.3472 17.4759 23.605 17.0298C22.8629 16.5837 22.0189 16.3397 21.165 16.3225C20.3111 16.3052 19.4598 16.5152 18.7021 16.9316C17.9444 17.3479 17.3089 17.9556 16.8581 18.6963C16.4073 19.437 16.1587 20.2847 16.1371 21.1533C16.1155 22.0219 16.3216 22.8813 16.7407 23.6431C17.1599 24.4048 17.7685 25.0413 18.5077 25.4925C17.7407 25.9445 17.123 26.6108 16.736 27.4005C16.3489 28.1902 16.21 29.0714 16.336 29.9305C16.4716 30.8198 16.8635 31.6496 17.4665 32.3185C18.0694 32.9875 18.8583 33.4654 19.736 33.689C20.6137 33.9127 21.5387 33.8724 22.3932 33.5739C23.2477 33.2754 23.9932 32.7317 24.537 32.0095C24.763 32.2355 25.016 32.4345 25.289 32.6015C25.6283 32.8156 26.0063 32.9631 26.4 33.0355C26.793 33.113 27.1994 33.0825 27.577 32.9471C27.9546 32.8118 28.2904 32.5761 28.552 32.2665C28.8136 31.9569 28.9911 31.583 29.0655 31.1838C29.1399 30.7846 29.108 30.3722 28.9729 29.9881C28.8378 29.604 28.6042 29.2608 28.293 28.9941C27.9818 28.7274 27.6043 28.5476 27.2 28.4735C27.0903 27.9177 26.8877 27.3853 26.602 26.899C27.3773 26.4732 28.0303 25.8497 28.4933 25.0888C28.9564 24.328 29.2131 23.4565 29.2382 22.5635C29.2633 21.6705 29.0559 20.7861 28.6371 20.0009C28.2183 19.2158 27.6038 18.5574 26.856 18.0895H30.666C30.8883 18.9705 31 19.8838 31 20.8035L31 21Z" fill="#25D366"/>
</svg>
